<svg version="1.1" id="Layer_1" xmlns="http://www.w3.org/2000/svg" xmlns:xlink="http://www.w3.org/1999/xlink" x="0px" y="0px"
	 width="100%" viewBox="0 0 1024 1024" enable-background="new 0 0 1024 1024" xml:space="preserve">
<path fill="#000000" opacity="1.000000" stroke="none" 
	d="
M881.748047,588.986816 
	C876.037964,576.436462 878.005127,563.906616 879.905640,551.367371 
	C880.925171,544.640625 882.001526,537.915466 882.737549,531.155334 
	C883.215820,526.763367 884.969666,525.232361 889.534790,525.916382 
	C912.374023,529.338806 935.243530,532.564026 958.121399,535.720215 
	C961.968994,536.250916 963.732544,537.494385 963.016968,541.795105 
	C961.243774,552.452637 959.971497,563.192688 958.257690,573.860962 
	C955.991028,587.970459 949.905518,599.778992 937.062683,607.190430 
	C919.306885,617.436951 890.985291,610.777344 881.748047,588.986816 
M896.320129,550.841614 
	C895.640320,557.271484 894.031006,563.591064 894.313293,570.137878 
	C894.750854,580.286194 901.571716,588.568542 911.848389,591.193542 
	C922.964844,594.033081 933.804138,590.035217 938.712097,580.982971 
	C943.276245,572.564758 943.239807,563.211426 944.323914,553.663818 
	C929.421326,551.504578 915.159729,549.409180 900.885559,547.403015 
	C898.870422,547.119812 896.742676,547.184753 896.320129,550.841614 
z"/>
<path fill="#000000" opacity="1.000000" stroke="none" 
	d="
M507.735535,906.562866 
	C505.855194,923.875000 504.021027,940.738098 502.306396,957.613342 
	C502.000336,960.625488 501.013672,962.271912 497.659698,961.855957 
	C484.953827,960.280701 472.102570,959.493958 459.558502,957.092041 
	C442.843506,953.891357 429.853668,944.821045 426.459412,927.238953 
	C421.271606,900.366455 436.185669,878.999207 464.859009,877.786865 
	C479.008667,877.188660 492.959381,880.415833 507.019989,881.702942 
	C510.046143,881.979980 510.368805,883.889526 510.092346,886.294006 
	C509.332703,892.901672 508.578735,899.509888 507.735535,906.562866 
M488.614960,904.286377 
	C488.719666,902.458679 488.723602,900.618103 488.955688,898.806763 
	C489.218506,896.755432 488.547760,895.586853 486.406281,895.427490 
	C480.107147,894.958923 473.798218,893.989563 467.511658,894.118347 
	C455.097443,894.372681 446.532288,902.431274 445.330872,914.218445 
	C443.885284,928.401184 449.927887,937.800903 462.673431,941.072632 
	C467.526306,942.318237 472.520447,942.569092 477.491486,943.036194 
	C484.210175,943.667603 484.107605,943.786316 484.857483,936.848938 
	C486.000244,926.277039 487.282806,915.720276 488.614960,904.286377 
z"/>
<path fill="#000000" opacity="1.000000" stroke="none" 
	d="
M795.941223,739.000610 
	C798.337646,743.958069 797.175964,746.184143 791.958740,747.783875 
	C784.316895,750.127136 778.348755,755.254944 773.913879,762.063293 
	C770.504150,767.297974 771.208862,776.199707 778.203430,780.151062 
	C779.639648,769.974548 785.500671,762.826233 793.775269,757.559448 
	C799.084229,754.180359 805.080261,752.443054 811.372070,753.134888 
	C826.307190,754.776978 837.211060,765.314392 839.153442,779.552734 
	C841.172180,794.350281 832.300049,806.319885 812.932983,814.568726 
	C816.726318,818.309875 814.242737,820.897217 811.344177,823.452576 
	C808.745911,825.743164 806.773743,828.725159 803.585693,830.616943 
	C800.260803,828.843689 797.993835,825.905151 795.365051,823.439636 
	C785.288940,813.988831 775.174500,804.571289 765.342163,794.869934 
	C751.061157,780.779236 750.459839,765.453308 763.412598,750.119995 
	C769.386963,743.047485 776.426819,737.244873 785.072693,733.654663 
	C792.917175,730.397278 793.402344,730.662231 795.941223,739.000610 
M818.859497,777.863403 
	C817.973694,776.879517 817.174011,775.798157 816.188110,774.927551 
	C809.728943,769.223694 800.602295,770.323303 794.686340,777.472900 
	C788.883911,784.485413 789.568054,793.215759 796.343018,798.611450 
	C801.650269,802.838135 808.221985,802.862305 813.800171,798.675537 
	C820.819458,793.407166 822.648376,786.675110 818.859497,777.863403 
z"/>
<path fill="#000000" opacity="1.000000" stroke="none" 
	d="
M131.359344,460.782867 
	C118.389709,462.916870 106.982468,460.381378 97.919823,451.119110 
	C88.201813,441.187012 85.744156,422.446930 100.019653,407.431732 
	C92.477524,405.678467 85.309090,403.800690 78.047981,402.405182 
	C73.838196,401.596130 73.159843,399.628693 74.074715,395.783844 
	C77.082458,383.143280 76.997574,383.042816 89.612541,385.756287 
	C111.064323,390.370544 132.497269,395.072693 153.929062,399.779266 
	C160.413147,401.203186 160.411224,401.268188 159.100830,407.674194 
	C158.700928,409.629181 158.118179,411.550598 157.792526,413.516083 
	C157.232788,416.894562 156.046967,419.389526 151.048172,417.715332 
	C156.153214,428.213409 154.819870,437.666168 149.797226,446.651154 
	C145.819626,453.766724 139.712494,458.490662 131.359344,460.782867 
M136.161667,418.475067 
	C133.415115,415.003967 129.560516,413.428864 125.434807,412.580414 
	C115.025673,410.439819 106.643608,416.790924 106.364113,426.871155 
	C106.188309,433.211761 109.943794,438.726959 116.111572,441.185913 
	C123.348068,444.070923 130.609772,442.910736 135.135071,438.146667 
	C139.618851,433.426208 140.181366,426.072998 136.161667,418.475067 
z"/>
<path fill="#000000" opacity="1.000000" stroke="none" 
	d="
M942.052979,375.140381 
	C946.267944,386.848328 946.336975,387.040497 935.072571,391.087250 
	C921.156677,396.086639 907.765015,402.634521 893.158203,405.618866 
	C884.088257,407.471924 875.600037,405.391083 868.860474,399.402008 
	C857.017273,388.877594 851.659424,375.184906 854.066467,359.478149 
	C855.913757,347.424744 864.432190,339.946472 875.313965,335.510895 
	C888.874878,329.983246 902.676086,325.047699 916.315857,319.708984 
	C919.351440,318.520813 920.712219,319.296539 921.990967,322.211945 
	C928.187378,336.339111 928.231750,336.226837 914.057190,341.573059 
	C903.005188,345.741577 891.707825,349.346771 881.096252,354.574524 
	C871.119141,359.489655 868.509033,367.572327 873.147583,377.455109 
	C877.015625,385.696228 883.688965,388.945465 893.010071,385.872101 
	C905.486084,381.758514 917.702637,376.857635 930.029175,372.291107 
	C931.122070,371.886200 932.197327,371.433228 933.293457,371.037781 
	C939.470276,368.809540 939.471619,368.813202 942.052979,375.140381 
z"/>
<path fill="#000000" opacity="1.000000" stroke="none" 
	d="
M818.049438,180.650406 
	C820.598511,183.464600 818.188171,184.721832 816.746277,186.165039 
	C807.558960,195.360489 798.318054,204.502487 789.157043,213.723907 
	C787.288269,215.604965 785.456116,217.597748 783.997314,219.797806 
	C777.926636,228.953323 780.483337,238.902908 790.036499,244.455750 
	C796.189087,248.032013 801.853333,246.869797 807.345520,243.109863 
	C813.174194,239.119492 817.563843,233.575592 822.613953,228.748291 
	C828.756104,222.877151 834.764587,216.860428 840.677307,210.757828 
	C843.093262,208.264359 844.834656,207.763641 847.633972,210.495621 
	C858.181396,220.789368 858.272095,220.696442 847.749451,231.158676 
	C839.949768,238.913528 832.275024,246.799316 824.320679,254.392136 
	C812.850098,265.341431 799.273926,268.643921 787.327393,262.462769 
	C772.674377,254.881317 762.142029,243.708313 761.800049,225.999390 
	C761.626465,217.011398 766.093567,209.602600 772.117432,203.357971 
	C782.296509,192.805939 792.856567,182.622253 803.139404,172.168594 
	C805.593079,169.674240 807.423035,169.721176 809.716797,172.258270 
	C812.283936,175.097733 815.108643,177.704391 818.049438,180.650406 
z"/>
<path fill="#000000" opacity="1.000000" stroke="none" 
	d="
M940.747437,413.746826 
	C944.090698,410.812988 946.425293,407.224823 950.836487,405.130005 
	C952.838440,411.617554 953.476868,417.991547 954.209717,424.327698 
	C954.449463,426.399872 952.536499,427.445648 951.276367,428.733154 
	C945.365906,434.771790 939.451233,440.806213 932.885986,447.507721 
	C938.544617,450.365967 943.585327,453.740479 949.137024,455.528595 
	C958.203735,458.448792 962.300781,464.229736 962.122742,473.467590 
	C962.078613,475.753754 963.380981,477.981781 962.543701,480.196014 
	C961.224121,481.346313 960.213928,480.452271 959.234436,479.954742 
	C948.243774,474.372009 937.089172,469.076141 926.370544,463.010681 
	C921.776917,460.411285 919.231567,461.172394 915.800537,464.698730 
	C906.856812,473.890808 897.515198,482.696289 888.307373,491.630280 
	C887.268066,492.638702 886.478333,494.067627 884.108154,494.195404 
	C882.090088,488.036224 881.704102,481.456879 880.814270,474.997314 
	C880.560852,473.157684 882.232239,472.079773 883.420837,470.944305 
	C888.842407,465.765289 894.310181,460.634430 899.718933,455.442139 
	C900.996704,454.215515 902.612671,453.208252 903.347778,450.664032 
	C895.729675,446.935455 888.254272,442.986084 880.529358,439.607056 
	C876.041809,437.644104 873.667908,435.009430 873.521729,429.937042 
	C873.389954,425.365906 871.531128,420.911499 871.913757,416.300232 
	C874.214172,415.059296 875.617310,416.669617 877.139832,417.447144 
	C889.009399,423.508453 900.913269,429.508667 912.652588,435.814362 
	C915.601929,437.398590 917.305725,436.930450 919.497009,434.703644 
	C926.391357,427.697327 933.479004,420.881195 940.747437,413.746826 
z"/>
<path fill="#000000" opacity="1.000000" stroke="none" 
	d="
M672.080750,115.037895 
	C675.585693,113.109497 678.743286,113.250648 681.985718,114.730286 
	C686.614868,116.842735 691.760315,117.756638 696.098511,120.479691 
	C695.814636,122.687782 694.074280,122.797668 692.807739,123.397255 
	C684.987488,127.099236 677.215149,130.915222 669.283875,134.364212 
	C665.539490,135.992493 664.980469,138.015945 666.236084,141.747574 
	C669.842163,152.464661 673.077271,163.306580 676.451233,174.101593 
	C676.884644,175.488159 677.802124,176.831680 676.480530,179.171326 
	C670.496948,176.876144 664.342590,174.620575 658.285522,172.128387 
	C656.453857,171.374756 656.240417,169.189926 655.655518,167.489426 
	C652.958984,159.649689 650.320923,151.789856 647.553162,143.616211 
	C641.687927,144.960861 637.216675,146.569946 635.096375,152.945541 
	C631.471497,163.845520 633.023621,162.772156 622.672485,159.063538 
	C612.853760,155.545670 613.827698,156.501328 617.226379,147.411774 
	C625.441162,125.441338 633.750122,103.505081 641.773804,81.465034 
	C643.437317,76.895760 645.390991,76.210075 649.823853,78.020149 
	C661.443970,82.764954 661.492004,82.542358 657.160156,94.148956 
	C653.279053,104.547745 649.492126,114.981667 645.334534,126.295792 
	C654.690552,122.357048 663.211365,118.769920 672.080750,115.037895 
z"/>
<path fill="#000000" opacity="1.000000" stroke="none" 
	d="
M192.687241,231.313080 
	C187.715591,226.357544 183.020508,221.624969 178.260269,216.958862 
	C176.611359,215.342560 175.820999,213.881577 177.795395,211.911331 
	C191.003067,198.731415 204.172424,185.513107 217.373260,172.326324 
	C217.695953,172.003983 218.239227,171.902435 218.878311,171.605652 
	C222.328110,173.913284 224.939682,177.174957 227.891907,180.058304 
	C230.064545,182.180222 228.369080,183.608017 226.948486,185.043442 
	C219.797989,192.268494 212.609406,199.456070 205.487000,206.708694 
	C200.639313,211.645035 200.741074,211.622604 205.397766,216.451324 
	C208.276840,219.436768 210.929367,222.640671 214.403519,226.558365 
	C221.468216,219.292801 227.670700,212.853363 233.941650,206.481308 
	C240.575394,199.740585 240.400467,199.999146 247.544998,206.301407 
	C251.396561,209.698944 251.506821,211.859131 247.690521,215.328140 
	C241.408676,221.038391 235.749466,227.429916 229.530426,233.214569 
	C226.576401,235.962250 226.639450,237.822845 229.498245,240.441330 
	C235.244720,245.704742 240.791748,251.185883 247.224304,257.346466 
	C242.442581,261.838501 238.548233,265.667969 234.458282,269.275726 
	C231.960602,271.478973 230.525848,268.881195 229.121704,267.495605 
	C217.022568,255.556259 204.990372,243.549103 192.687241,231.313080 
z"/>
<path fill="#000000" opacity="1.000000" stroke="none" 
	d="
M877.079834,676.168945 
	C873.294861,674.767456 874.145020,672.450012 875.062439,669.934387 
	C879.051147,658.997314 882.970093,648.034790 886.879211,637.068970 
	C887.473999,635.400513 888.496216,633.780701 887.859375,631.594727 
	C882.873779,630.889343 879.066772,633.230835 876.301575,636.863708 
	C872.237000,642.203735 870.127075,648.390686 871.930054,655.135681 
	C872.905029,658.783142 871.936157,660.495911 868.538086,661.971008 
	C859.000732,666.111084 857.930664,665.669373 856.064941,655.518188 
	C853.239319,640.144409 865.322388,619.523804 880.158020,614.642212 
	C892.255249,610.661621 902.923584,613.853577 911.979919,622.191895 
	C921.254333,630.731018 923.814453,641.536499 920.658569,653.638367 
	C915.535400,673.283813 897.418579,684.309387 877.079834,676.168945 
M906.747864,645.771912 
	C906.232849,641.289429 904.542725,637.619446 899.750122,635.453796 
	C896.442871,644.215820 892.933838,652.481995 890.959656,661.397400 
	C900.330200,662.394043 906.185181,656.634644 906.747864,645.771912 
z"/>
<path fill="#000000" opacity="1.000000" stroke="none" 
	d="
M660.178345,849.070251 
	C670.348877,843.232422 680.708252,840.254639 692.007751,843.650330 
	C713.995911,850.258118 721.387573,878.957031 705.423096,895.446350 
	C687.877502,913.568787 661.904602,909.864624 651.544128,887.877991 
	C649.841797,884.265320 650.069275,882.402283 654.056885,880.661804 
	C664.882385,875.936707 675.522400,870.784973 686.210938,865.749329 
	C687.641602,865.075256 689.429077,864.840881 690.449524,862.944885 
	C686.406372,857.983032 681.126831,857.471008 675.588928,858.840271 
	C669.940674,860.236816 665.009460,863.194031 662.068665,868.377197 
	C660.257935,871.568542 658.476624,871.870728 655.254578,870.524414 
	C645.241577,866.340881 644.810913,864.954163 651.544189,856.335327 
	C653.845642,853.389221 656.753601,851.220703 660.178345,849.070251 
M672.216614,887.621155 
	C678.339783,892.796692 684.853333,893.055603 691.211426,888.376221 
	C696.251526,884.666809 697.772217,880.006165 695.361755,874.042786 
	C687.766479,877.688110 680.193420,881.307068 672.641724,884.970093 
	C671.835510,885.361206 671.510437,886.139282 672.216614,887.621155 
z"/>
<path fill="#000000" opacity="1.000000" stroke="none" 
	d="
M290.190613,862.481567 
	C267.432220,872.987732 242.388397,853.351379 242.749557,832.898499 
	C242.880600,825.477051 245.451248,818.977722 249.768738,812.994995 
	C252.056564,809.824829 254.071518,809.728760 257.113556,812.057556 
	C265.967682,818.835876 274.996063,825.386902 283.976532,831.999390 
	C285.697418,833.266541 287.297546,834.776855 289.786865,835.343933 
	C291.857391,831.631958 291.161194,827.948059 289.325928,824.584656 
	C285.638947,817.827698 279.687714,814.181824 272.092621,813.307007 
	C267.021027,812.722717 265.787079,810.496765 265.881866,802.174866 
	C265.938721,797.183594 269.597229,797.571167 272.603668,797.833740 
	C287.229584,799.110840 297.890900,806.933655 304.755249,819.423523 
	C310.675415,830.195435 309.807220,841.259094 302.772308,851.518677 
	C299.627808,856.104492 295.546326,859.769653 290.190613,862.481567 
M259.122467,835.553467 
	C259.856232,842.735168 263.915192,847.757935 270.629791,849.391357 
	C275.161774,850.493835 279.309143,849.805298 283.160339,845.655457 
	C275.424591,839.992737 268.207428,834.709656 261.144196,829.539246 
	C259.031403,831.380493 259.383331,833.152222 259.122467,835.553467 
z"/>
<path fill="#000000" opacity="1.000000" stroke="none" 
	d="
M422.049561,899.592529 
	C414.410004,926.291321 385.243103,931.050049 366.877563,914.455811 
	C357.363342,905.859192 354.515778,892.063232 359.598389,880.110657 
	C360.838593,877.194092 362.435333,877.006775 365.047211,877.860413 
	C376.116333,881.478516 387.215057,885.006531 398.320038,888.513428 
	C400.194275,889.105347 402.006287,890.108643 404.381989,889.769409 
	C405.450897,884.917114 402.966614,881.520691 399.532501,878.748230 
	C393.858398,874.167358 387.192505,872.762756 380.237671,874.518066 
	C376.388611,875.489563 374.591187,874.433777 373.600494,870.945251 
	C373.465515,870.470093 373.200165,870.031860 372.993530,869.577209 
	C369.512634,861.919128 369.854218,860.882568 377.768127,859.135376 
	C393.436401,855.676208 419.517426,864.961853 422.931824,887.830139 
	C423.518524,891.759583 422.721191,895.429260 422.049561,899.592529 
M386.974274,908.737671 
	C395.223663,909.038696 398.158691,907.565125 400.740479,901.615601 
	C392.236481,898.694153 383.861633,895.463623 375.049683,893.385864 
	C373.729401,901.170837 377.352600,905.911377 386.974274,908.737671 
z"/>
<path fill="#000000" opacity="1.000000" stroke="none" 
	d="
M175.138031,367.933655 
	C164.518082,388.809937 143.575378,394.520599 125.785950,381.700531 
	C112.183823,371.898071 109.505531,351.662018 119.715675,335.835907 
	C129.209717,321.119751 145.327194,316.245667 160.501450,323.501923 
	C175.890137,330.860718 182.361572,346.559448 176.921753,363.394440 
	C176.461823,364.817871 175.837021,366.188049 175.138031,367.933655 
M138.891068,340.039459 
	C130.814255,344.463898 127.727264,352.476654 131.188812,360.031708 
	C134.508789,367.277740 144.820679,371.793182 152.252899,369.176575 
	C158.403503,367.011230 161.499146,362.122620 162.423416,356.112244 
	C163.235001,350.834808 160.861893,346.372650 156.556763,343.174500 
	C151.484070,339.406097 145.828384,338.130676 138.891068,340.039459 
z"/>
<path fill="#000000" opacity="1.000000" stroke="none" 
	d="
M122.753204,530.213623 
	C109.155479,533.286377 97.591446,530.196045 89.184883,519.534973 
	C80.365120,508.349854 79.482101,495.554749 85.644753,482.835083 
	C91.353287,471.052734 101.495895,465.884186 114.477798,465.833557 
	C119.136017,465.815399 120.856277,467.355438 120.541512,472.369843 
	C119.853928,483.323364 120.277481,494.332275 119.354424,505.295715 
	C119.179512,507.373260 118.793556,509.584534 119.986069,511.979004 
	C124.994118,510.789886 128.071106,507.392975 129.590317,502.896057 
	C131.673401,496.730103 131.947754,490.279083 128.174911,484.633392 
	C125.849365,481.153442 126.643600,479.303009 129.504333,476.806091 
	C137.168091,470.116882 138.989426,470.408142 143.097290,479.781189 
	C150.354324,496.339844 144.728241,518.099304 130.858353,526.626465 
	C128.476837,528.090576 125.734825,528.968384 122.753204,530.213623 
M100.822144,508.661194 
	C102.603790,510.044708 104.136528,512.021423 107.459099,511.135284 
	C107.404114,502.395996 109.185890,493.644257 108.338173,484.329620 
	C103.070763,484.756378 100.001259,487.325897 98.233543,491.307800 
	C95.602722,497.233826 96.053566,502.964600 100.822144,508.661194 
z"/>
<path fill="#000000" opacity="1.000000" stroke="none" 
	d="
M175.017746,680.709839 
	C168.286301,693.642273 154.373383,701.734619 142.451111,699.923462 
	C127.048248,697.583618 115.517982,685.873840 112.737099,669.746765 
	C109.627693,651.714417 119.534622,636.713745 137.454803,632.320129 
	C153.009445,628.506470 169.657440,638.906860 175.245178,655.925537 
	C177.921494,664.076782 178.258972,672.218872 175.017746,680.709839 
M135.948685,653.339783 
	C127.694801,659.513184 125.942848,667.210388 131.045456,674.882080 
	C135.834305,682.082031 145.251190,683.468567 153.581879,678.200317 
	C160.963776,673.532043 162.998917,665.039856 158.593262,657.288940 
	C154.549774,650.175171 146.194229,648.542419 135.948685,653.339783 
z"/>
<path fill="#000000" opacity="1.000000" stroke="none" 
	d="
M711.414978,845.554443 
	C708.486511,841.480042 705.818054,837.658997 703.023682,833.932373 
	C701.313660,831.652039 701.203979,829.944275 703.836670,828.179016 
	C718.873108,818.097229 713.752197,817.164124 724.208923,831.216553 
	C728.180969,836.554382 731.827759,842.136353 735.855591,847.429932 
	C740.239502,853.191406 746.120667,854.558716 751.629578,851.452942 
	C757.642761,848.062866 760.088928,841.855286 757.899719,835.279480 
	C756.073792,829.794922 752.059326,825.642090 748.926514,820.961975 
	C745.966187,816.539490 742.851196,812.214966 739.664124,807.952026 
	C737.929321,805.631714 738.057800,804.056580 740.419861,802.140686 
	C751.887146,792.840027 751.865906,792.767395 760.456543,804.826965 
	C768.951477,816.752197 777.333069,828.758728 785.899536,840.632080 
	C787.843933,843.327026 788.158569,845.195312 784.956238,847.020020 
	C782.798401,848.249512 780.789490,849.773865 778.835632,851.320190 
	C775.997742,853.566223 773.272644,855.147095 770.499207,850.526428 
	C767.933228,856.270020 765.196655,861.113037 760.877075,864.956787 
	C748.705322,875.787842 733.392639,874.760193 723.279419,862.051636 
	C719.141113,856.851196 715.492981,851.260620 711.414978,845.554443 
z"/>
<path fill="#000000" opacity="1.000000" stroke="none" 
	d="
M225.304596,742.742981 
	C228.401520,746.221313 231.256714,749.443970 234.250137,752.822632 
	C231.432007,757.228638 227.461990,760.008911 224.042892,763.301697 
	C219.246902,767.920471 214.294418,772.382874 209.623596,777.123718 
	C204.534241,782.289307 203.983612,787.328491 207.560852,792.334045 
	C211.492493,797.835510 218.400543,799.896912 224.272614,797.184875 
	C230.168076,794.462158 234.003952,789.185486 238.816345,785.122559 
	C242.372421,782.120239 245.715485,778.843994 248.961349,775.503174 
	C251.303848,773.092224 253.226761,772.771423 255.548065,775.493896 
	C257.813385,778.150696 260.260101,780.665833 262.764771,783.101685 
	C264.978760,785.254883 264.625397,786.830139 262.435974,788.857483 
	C249.366867,800.958130 236.351883,813.118835 223.448181,825.395447 
	C220.719513,827.991577 218.821960,827.948120 216.579010,824.986389 
	C214.977737,822.872009 213.168304,820.862244 211.190445,819.098816 
	C208.482925,816.684937 207.602585,814.391785 211.565216,811.533142 
	C205.433380,809.662354 200.258255,807.637573 195.963867,803.751404 
	C183.070923,792.084045 182.612366,776.504578 195.136856,764.509216 
	C202.950577,757.025513 211.042465,749.832703 218.878769,742.371948 
	C221.199478,740.162476 223.045364,739.924683 225.304596,742.742981 
z"/>
<path fill="#000000" opacity="1.000000" stroke="none" 
	d="
M522.504700,141.925842 
	C514.299438,144.906631 506.485382,144.810303 498.808411,141.504898 
	C490.782135,138.049118 487.041992,131.619385 487.724976,122.791710 
	C488.260895,115.865005 493.565521,109.844002 501.137939,107.777084 
	C508.113678,105.873047 515.247681,105.675102 522.419800,106.126579 
	C523.887512,106.218971 525.356140,106.296165 526.766541,106.377052 
	C528.025024,101.686043 526.343018,98.335800 521.665527,96.598579 
	C514.872925,94.075821 508.261047,95.334229 501.772461,97.993675 
	C500.272980,98.608261 499.062592,99.981903 496.946472,99.778412 
	C494.595490,96.940338 493.364166,93.300591 491.605591,89.960655 
	C490.444122,87.754768 491.527740,86.500534 493.393219,85.610977 
	C506.788910,79.223183 520.520996,77.513084 534.295837,83.946297 
	C543.920471,88.441277 546.802734,97.411942 546.961243,107.164780 
	C547.139465,118.129791 546.541931,129.106308 546.358948,140.079117 
	C546.315186,142.699371 545.059448,143.579453 542.615784,143.483871 
	C539.790771,143.373398 536.956848,143.316971 534.132446,143.410294 
	C530.729675,143.522736 527.985596,143.016861 528.747742,138.037079 
	C526.404419,139.515488 524.627441,140.636551 522.504700,141.925842 
M524.935608,118.182426 
	C520.453735,117.992569 515.958801,117.653732 511.502167,118.353859 
	C508.859985,118.768936 506.814575,120.166428 506.298920,122.999367 
	C505.770050,125.905022 506.773285,128.235886 509.353119,129.784637 
	C514.274475,132.739075 523.381226,130.830322 526.423340,125.995140 
	C528.024170,123.450722 529.267761,120.586990 524.935608,118.182426 
z"/>
<path fill="#000000" opacity="1.000000" stroke="none" 
	d="
M289.877411,165.077820 
	C287.041260,160.936081 284.507904,157.016556 281.737915,153.272095 
	C279.939972,150.841675 280.214905,149.180847 282.736450,147.551071 
	C286.625763,145.037231 290.407562,142.357025 294.771820,139.381317 
	C298.531189,144.718597 302.086212,149.686661 305.558472,154.711929 
	C312.749298,165.118973 319.807404,175.619156 327.112885,185.944641 
	C329.425262,189.212906 329.571930,191.477570 325.769958,193.498474 
	C323.872406,194.507095 322.059814,195.771744 320.439240,197.184875 
	C317.297882,199.924133 314.479614,200.888107 311.942047,195.535919 
	C309.294373,204.093750 304.533203,209.999069 297.344360,213.874939 
	C286.292755,219.833389 275.196655,218.336731 267.066589,208.862946 
	C258.717438,199.133865 252.034195,188.128143 244.788895,177.562744 
	C243.650345,175.902451 243.714493,174.486435 245.451050,173.295776 
	C245.862595,173.013611 246.254715,172.703156 246.656158,172.406265 
	C258.261688,163.823273 258.251984,163.829895 266.354797,175.706985 
	C270.013275,181.069595 273.541077,186.534195 277.446381,191.712540 
	C282.966003,199.031509 287.942474,200.190781 294.426025,196.146790 
	C300.896973,192.110718 302.498810,185.424042 298.327698,177.863541 
	C295.925354,173.509033 292.851440,169.525055 289.877411,165.077820 
z"/>
<path fill="#000000" opacity="1.000000" stroke="none" 
	d="
M871.092773,736.813660 
	C865.498840,729.140686 865.554688,729.193481 871.823975,722.563660 
	C875.387573,718.795105 878.416809,714.648499 879.848206,709.509766 
	C880.530762,707.059387 880.681152,704.794617 878.254822,703.334229 
	C875.858337,701.891907 874.077393,703.483704 872.620544,705.118652 
	C868.194275,710.085754 864.097473,715.364990 859.460693,720.121399 
	C853.024780,726.723267 845.788208,727.525513 838.202515,722.819824 
	C832.071594,719.016663 829.508484,713.069031 830.141235,706.183105 
	C831.535828,691.005920 839.710938,679.556152 851.109924,670.063843 
	C853.705688,667.902344 855.553284,668.194458 857.685059,670.961426 
	C863.578918,678.611389 863.702087,678.546753 856.807129,684.967529 
	C852.613770,688.872681 849.053894,693.254578 846.904541,698.595398 
	C845.831726,701.261353 843.794189,704.467163 847.226807,706.687012 
	C850.768250,708.977173 852.630615,705.600586 854.492615,703.458252 
	C858.095032,699.313477 861.256287,694.767517 865.019775,690.783997 
	C874.987122,680.233521 890.754333,683.690063 894.738953,697.201660 
	C895.936096,701.261292 895.927429,705.570496 894.966431,709.573364 
	C892.244995,720.909485 886.226257,730.320068 877.256226,737.845215 
	C874.844788,739.868225 872.931885,740.206421 871.092773,736.813660 
z"/>
<path fill="#000000" opacity="1.000000" stroke="none" 
	d="
M330.115479,875.837585 
	C325.269714,872.001709 320.506744,868.601990 316.149933,864.743591 
	C309.212219,858.599670 307.559662,851.832581 310.763245,844.711914 
	C314.087952,837.322021 321.345428,832.902710 329.882965,834.004150 
	C344.456085,835.884399 356.041260,843.276611 365.335632,854.493469 
	C367.069946,856.586426 367.085754,858.329834 364.770264,859.915283 
	C361.792877,861.953796 359.345490,864.779541 355.552155,866.408203 
	C351.741028,861.085327 347.307678,856.647278 341.859589,853.291992 
	C339.278412,851.702332 336.562744,850.481262 333.661713,849.669861 
	C331.440948,849.048706 329.212860,849.036377 327.892731,851.275818 
	C326.456573,853.711975 328.124329,855.379089 329.822723,856.814636 
	C335.036133,861.221375 340.946747,864.764893 345.737885,869.699707 
	C355.338409,879.588135 351.516693,894.695557 338.351532,898.703308 
	C334.442383,899.893372 330.333008,899.848389 326.465515,898.987793 
	C315.790771,896.612427 306.739075,891.177551 299.039459,883.418579 
	C295.984741,880.340210 295.527374,878.042419 299.628967,875.135986 
	C306.633698,870.172363 306.417664,869.969360 312.463531,875.640991 
	C316.381439,879.316345 320.644531,882.548462 326.050049,883.693787 
	C328.508301,884.214539 331.222992,884.551758 332.778687,881.900146 
	C334.417694,879.106506 331.894928,877.727722 330.115479,875.837585 
z"/>
<path fill="#000000" opacity="1.000000" stroke="none" 
	d="
M401.932373,159.370041 
	C398.129608,159.213440 394.797211,159.166641 391.491547,158.844849 
	C388.720154,158.575089 387.515900,157.090790 387.933014,154.063461 
	C389.272339,144.343521 389.191589,144.320236 399.074005,144.655624 
	C405.485382,144.873215 411.705658,144.061508 417.486877,141.115707 
	C419.623413,140.027069 421.715118,138.499634 420.914368,135.723877 
	C420.160461,133.110626 417.643036,133.248489 415.469696,133.287933 
	C409.151581,133.402618 402.911743,134.569733 396.553375,134.441406 
	C389.054321,134.290070 383.262695,131.697037 380.106323,124.573189 
	C377.037201,117.646278 378.506134,110.025276 384.052399,104.288437 
	C390.125732,98.006348 398.065063,95.518890 406.281769,93.783257 
	C411.340729,92.714638 416.490356,92.270081 421.669312,92.922455 
	C424.970398,93.338287 426.618866,94.528603 425.805328,98.504082 
	C423.994629,107.352615 424.217621,107.429726 415.070709,107.373199 
	C409.988129,107.341797 405.127594,108.271614 400.597504,110.582802 
	C398.329437,111.739929 395.947968,113.263741 396.651245,116.240227 
	C397.338226,119.147537 400.118896,119.005409 402.436432,118.906937 
	C408.417633,118.652763 414.390289,118.022682 420.370483,117.963760 
	C427.843170,117.890129 434.161804,120.206604 437.308105,127.798912 
	C440.401550,135.263641 438.978546,142.223694 432.670929,148.200104 
	C424.222137,156.205170 413.607574,158.639008 401.932373,159.370041 
z"/>
<path fill="#000000" opacity="1.000000" stroke="none" 
	d="
M578.871948,107.885002 
	C570.789490,119.396690 574.140991,132.216980 585.727722,135.265915 
	C590.739807,136.584778 595.379089,135.805786 599.230652,132.223618 
	C601.232361,130.362000 602.936096,130.383255 604.893982,132.075455 
	C606.405640,133.381927 607.970154,134.627716 609.524658,135.883804 
	C615.117432,140.402832 615.121948,141.472244 609.545166,145.777161 
	C599.634888,153.427277 584.377197,153.729431 571.834167,146.524017 
	C559.810547,139.617004 554.074768,128.225784 555.815674,114.711739 
	C557.483704,101.763557 566.096069,92.069153 579.223328,88.363258 
	C593.372498,84.368866 611.303406,90.670509 617.642822,101.865494 
	C621.249512,108.234520 620.955200,109.034920 614.199646,111.234535 
	C613.092468,111.595039 611.930969,111.841805 610.888306,112.338081 
	C607.019531,114.179359 604.660767,113.620033 602.175598,109.455910 
	C597.520935,101.656631 586.732422,101.122772 578.871948,107.885002 
z"/>
<path fill="#000000" opacity="1.000000" stroke="none" 
	d="
M160.495270,757.346802 
	C168.404694,745.703735 176.204819,734.396240 184.586731,722.245422 
	C170.920319,724.511963 158.307434,726.446167 145.770203,728.785767 
	C142.324326,729.428772 140.349670,728.497498 138.892059,725.620667 
	C137.053497,721.992065 133.743149,719.139221 132.775330,714.236328 
	C140.667770,712.748962 148.253937,711.247803 155.867340,709.900635 
	C168.302216,707.700439 180.778183,705.724060 193.184891,703.378662 
	C196.643570,702.724792 198.697189,703.458130 200.643265,706.452515 
	C208.486847,718.521790 208.558792,718.455566 200.518112,730.163147 
	C191.665497,743.052856 182.853043,755.970215 173.994247,768.855713 
	C172.983017,770.326599 172.235443,772.098694 169.742813,772.962952 
	C166.323730,768.166504 162.453278,763.519531 160.495270,757.346802 
z"/>
<path fill="#000000" opacity="1.000000" stroke="none" 
	d="
M147.456299,573.142212 
	C129.000137,584.110168 110.867996,594.851624 92.188179,605.917603 
	C90.053703,599.606079 89.878349,593.964600 89.265541,588.430237 
	C89.045372,586.441895 91.135735,585.869324 92.530960,585.053589 
	C103.578743,578.594177 114.643410,572.163635 126.860458,565.050293 
	C118.966713,562.944702 112.178886,561.127441 105.387245,559.324524 
	C99.759232,557.830444 94.144180,556.281921 88.489029,554.897949 
	C85.577545,554.185364 83.852547,552.825378 83.592003,549.571777 
	C83.262833,545.461182 82.495644,541.385620 81.957405,537.578064 
	C83.854492,535.794312 85.486168,536.649109 87.034958,537.062439 
	C105.527008,541.998108 124.004852,546.987061 142.502533,551.901428 
	C145.522598,552.703735 147.460907,553.927673 147.524338,557.570251 
	C147.581543,560.855225 148.538651,564.120483 149.042236,567.403198 
	C149.346512,569.386597 149.682480,571.418823 147.456299,573.142212 
z"/>
<path fill="#000000" opacity="1.000000" stroke="none" 
	d="
M484.446747,142.568756 
	C481.167480,144.403595 477.961609,145.289413 474.682312,145.926666 
	C459.910583,148.797104 449.847443,141.838287 447.476044,126.955475 
	C446.428619,120.381775 445.582031,113.768776 444.899994,107.147278 
	C444.565857,103.903671 443.064240,102.546364 440.018036,103.266205 
	C435.341003,104.371422 434.173218,101.748207 433.889252,97.941551 
	C433.765350,96.280548 433.750458,94.590172 433.409637,92.971321 
	C432.813568,90.140007 433.975677,88.631020 436.705444,88.784836 
	C441.840912,89.074203 442.150360,86.361702 441.738708,82.205643 
	C440.850891,73.242195 441.038818,73.223587 450.008484,71.869499 
	C459.112671,70.495110 459.553833,70.469582 460.093079,79.789719 
	C460.394989,85.007812 462.596832,85.274429 466.687653,84.789810 
	C476.618073,83.613388 476.847412,84.029869 477.384796,93.810616 
	C477.557251,96.949280 476.622406,98.189857 473.529358,98.834602 
	C463.406586,100.944672 463.366272,101.073753 464.373230,111.245537 
	C464.782166,115.376503 465.483856,119.482773 466.164978,123.581558 
	C467.294373,130.377579 471.175079,132.704117 477.562775,129.772583 
	C480.984528,128.202240 482.415009,129.194290 483.697540,132.110718 
	C484.433624,133.784546 485.305298,135.409882 486.242706,136.981430 
	C487.648926,139.338974 487.104492,141.073975 484.446747,142.568756 
z"/>
<path fill="#000000" opacity="1.000000" stroke="none" 
	d="
M838.394165,303.238647 
	C864.616638,298.247925 890.447876,293.469971 916.213684,288.361816 
	C920.106140,287.590118 922.137817,288.497498 923.769409,291.840912 
	C925.286377,294.949524 927.127625,297.899933 928.702026,300.699371 
	C927.471313,303.143799 925.481445,303.044769 923.760071,303.377014 
	C889.965454,309.899994 856.159729,316.365784 822.377197,322.950256 
	C818.552307,323.695709 815.897644,322.999634 814.391296,319.154907 
	C813.138977,315.958466 810.498779,313.392059 809.727295,309.323212 
	C819.083435,306.384277 828.667236,305.446198 838.394165,303.238647 
z"/>
<path fill="#000000" opacity="1.000000" stroke="none" 
	d="
M91.095734,635.226257 
	C90.526161,635.339539 90.360130,635.361633 90.199326,635.403748 
	C76.612640,638.960022 74.866447,637.630188 73.340004,623.357666 
	C72.971024,619.907593 75.291870,620.067505 77.269691,619.531494 
	C95.420959,614.612671 113.580597,609.724731 131.730453,604.800720 
	C137.509293,603.232910 143.268631,601.592712 149.032288,599.969360 
	C155.039276,598.277344 155.061081,598.281006 156.788208,604.513550 
	C157.455078,606.920044 157.954849,609.386169 158.805267,611.725342 
	C160.154175,615.435547 158.903915,617.021667 155.129044,618.013977 
	C133.886719,623.597717 112.704453,629.410034 91.095734,635.226257 
z"/>
<path fill="#000000" opacity="1.000000" stroke="none" 
	d="
M330.073059,167.800735 
	C321.256226,150.375580 312.719727,133.223938 303.893463,116.222725 
	C301.688995,111.976501 301.784515,109.721558 306.575317,107.445328 
	C318.110413,101.964691 317.852020,101.787704 323.645416,113.436356 
	C333.585419,133.422485 343.631317,153.357544 353.852570,173.200821 
	C355.834900,177.049362 355.454041,178.809341 351.377930,180.742767 
	C339.470245,186.390991 339.559479,186.576492 333.636810,174.817123 
	C332.512573,172.585037 331.376740,170.358795 330.073059,167.800735 
z"/>
<path fill="#000000" opacity="1.000000" stroke="none" 
	d="
M383.433990,163.618011 
	C384.127014,165.214050 383.983429,166.391861 382.697571,166.939133 
	C378.263733,168.826233 373.827240,170.729202 369.292938,172.349548 
	C366.762085,173.253967 366.332214,170.887894 365.672424,169.257004 
	C359.621185,154.299377 353.593292,139.332291 347.566925,124.364594 
	C344.150238,115.878601 340.849915,107.343773 337.292053,98.917572 
	C335.838898,95.476120 336.325500,93.665764 340.038818,92.123100 
	C352.750488,86.842194 352.649841,86.723389 357.686920,99.345047 
	C366.194672,120.663460 374.764404,141.957153 383.433990,163.618011 
z"/>
<path fill="#000000" opacity="1.000000" stroke="none" 
	d="
M837.235352,289.281006 
	C831.542053,293.385315 826.056885,297.173584 820.773560,301.225128 
	C818.367676,303.070038 816.786316,303.001282 815.088196,300.451294 
	C804.264893,284.199371 803.426636,289.988647 818.171814,278.927948 
	C834.024170,267.036804 850.321960,255.741028 866.266968,243.970901 
	C869.977539,241.231918 872.071777,241.033127 874.960938,245.191879 
	C882.692078,256.320679 882.906433,256.197296 871.928650,264.171600 
	C860.475220,272.491333 848.994629,280.773743 837.235352,289.281006 
z"/>
<path fill="#000000" opacity="1.000000" stroke="none" 
	d="
M164.181824,268.723206 
	C165.055923,269.272095 165.615158,269.632355 166.176682,269.989044 
	C172.329483,273.897461 172.329575,273.897308 169.303116,280.372040 
	C165.925354,287.598358 167.702057,294.286346 174.693283,298.937592 
	C181.888702,303.724731 189.221436,308.325409 196.683823,312.682739 
	C200.299683,314.794037 200.826843,316.890381 198.444504,320.217377 
	C196.609818,322.779510 194.977203,325.509552 193.489929,328.290710 
	C192.009827,331.058502 190.393509,331.068359 187.892380,329.505249 
	C172.805832,320.076874 157.690262,310.692719 142.476364,301.471985 
	C139.059052,299.400909 138.646866,297.398895 141.006531,294.345459 
	C142.424362,292.510742 143.740204,290.542114 144.757431,288.464996 
	C146.587097,284.728973 148.816956,282.808258 153.312317,286.678650 
	C152.506348,280.958954 153.196121,276.294250 154.826508,271.752808 
	C157.158218,265.257629 157.849411,264.996948 164.181824,268.723206 
z"/>
<path fill="#000000" opacity="1.000000" stroke="none" 
	d="
M632.506958,921.315674 
	C630.583435,919.418152 630.149475,921.522339 629.497070,922.283264 
	C626.388062,925.908813 622.524658,928.352417 618.209229,930.288818 
	C614.930542,931.760071 613.169617,930.868958 612.491577,927.429016 
	C612.331238,926.615784 611.983276,925.838806 611.833069,925.024597 
	C611.293274,922.097900 609.144165,919.208496 610.049561,916.373169 
	C610.984497,913.445251 614.793518,913.967834 617.174194,912.604980 
	C623.760193,908.834778 626.304810,902.712524 624.042053,894.662842 
	C621.703735,886.344604 619.236633,878.059265 616.627747,869.822266 
	C615.653564,866.746216 616.445984,865.437439 619.520142,864.396240 
	C633.287109,859.733582 633.219482,859.651245 637.374268,873.770447 
	C641.453125,887.631897 645.523682,901.497375 649.806213,915.296448 
	C650.890381,918.789795 650.312866,920.574036 646.577637,921.362183 
	C643.500610,922.011353 640.518799,923.127197 637.512451,924.091248 
	C635.006348,924.894958 633.266113,924.335266 632.506958,921.315674 
z"/>
<path fill="#000000" opacity="1.000000" stroke="none" 
	d="
M831.686035,727.285095 
	C843.061890,735.428345 854.077026,743.461121 865.268860,751.239746 
	C868.456482,753.455261 868.888977,755.168274 866.518127,758.392090 
	C858.484436,769.315735 858.539368,769.470459 847.458801,761.695068 
	C835.620117,753.387634 823.945312,744.846313 812.087402,736.566833 
	C808.797607,734.269836 807.978394,732.075745 810.820068,728.964783 
	C811.600220,728.110718 812.210388,727.100342 812.889832,726.155457 
	C818.711060,718.060669 818.712341,718.057312 826.946655,723.863037 
	C828.441223,724.916870 829.911133,726.005493 831.686035,727.285095 
z"/>
<path fill="#000000" opacity="1.000000" stroke="none" 
	d="
M727.466431,191.732101 
	C725.338928,200.851929 718.487976,204.925858 711.287903,201.713379 
	C706.092407,199.395264 703.251282,193.814194 704.633057,188.640747 
	C706.211914,182.729797 710.922729,179.254349 716.754517,179.698151 
	C722.726257,180.152603 726.831909,184.609680 727.466431,191.732101 
z"/>
<path fill="#000000" opacity="1.000000" stroke="none" 
	d="
M546.743774,896.159973 
	C543.025330,890.241272 542.714417,885.582031 545.917236,881.625122 
	C548.927734,877.905884 552.892883,875.973022 557.760498,877.131470 
	C562.565857,878.275146 565.499695,881.428406 566.342285,886.335693 
	C567.211670,891.399475 565.682800,895.520691 561.165222,898.239685 
	C556.524353,901.032837 552.098572,900.431152 546.743774,896.159973 
z"/>
<path fill="#000000" opacity="1.000000" stroke="none" 
	d="
M889.230652,771.847900 
	C889.049500,774.862427 887.803040,776.991394 886.223938,778.952759 
	C882.413025,783.686157 876.556152,784.853394 872.115173,781.793823 
	C867.270691,778.456299 866.233459,772.104065 869.668762,766.812012 
	C873.287720,761.237305 879.022583,759.478516 884.157288,762.399048 
	C887.649902,764.385620 889.231140,767.475952 889.230652,771.847900 
z"/>
</svg>