<svg xmlns="http://www.w3.org/2000/svg" width="151" height="40" viewBox="0 0 151 40" fill="none"><path fill-rule="evenodd" clip-rule="evenodd" d="M0.00012207 30.6154H35.3423L40.7591 40H5.41686L0.00012207 30.6154Z" fill="url(#paint0_linear)"></path><path fill-rule="evenodd" clip-rule="evenodd" d="M33.9218 9.38479L28.5051 0H17.6714L28.5051 18.7694L33.9218 9.38479Z" fill="url(#paint1_linear)"></path><path fill-rule="evenodd" clip-rule="evenodd" d="M0.00012207 30.6154L17.6711 0H28.5048L5.41686 40L0.00012207 30.6154Z" fill="url(#paint2_linear)"></path><path d="M54.9246 40C53.6213 40 52.4516 39.7994 51.4156 39.3983C50.3796 38.9971 49.5024 38.4081 48.7838 37.6307C48.0654 36.8536 47.5139 35.9051 47.1297 34.7852C46.7452 33.6655 46.5532 32.3784 46.5532 30.9243C46.5532 29.4701 46.7745 28.1832 47.2173 27.0633C47.6602 25.9435 48.2659 24.9949 49.0345 24.2177C49.8032 23.4404 50.7055 22.8513 51.7415 22.4502C52.7775 22.0491 53.8886 21.8485 55.0751 21.8485C55.7935 21.8485 56.4451 21.9029 57.0301 22.0115C57.615 22.1201 58.1246 22.2413 58.559 22.375C58.9935 22.5088 59.3528 22.6508 59.6368 22.8013C59.9209 22.9516 60.1214 23.0602 60.2383 23.1271L59.3109 25.7095C58.9099 25.4587 58.3376 25.2206 57.594 24.9949C56.8503 24.7692 56.0441 24.6565 55.1754 24.6565C54.4234 24.6565 53.7216 24.786 53.0698 25.0451C52.4182 25.3042 51.8542 25.6927 51.3781 26.211C50.9019 26.729 50.5299 27.3807 50.2626 28.1664C49.9954 28.9521 49.8616 29.8629 49.8616 30.8992C49.8616 31.8184 49.9662 32.6624 50.175 33.4314C50.3838 34.2001 50.7055 34.8647 51.14 35.4245C51.5744 35.9844 52.1258 36.419 52.7941 36.7281C53.4625 37.0373 54.2646 37.192 55.2003 37.192C56.3199 37.192 57.2306 37.0792 57.9324 36.8535C58.6342 36.6279 59.1772 36.4148 59.5616 36.2143L60.4137 38.7965C60.2132 38.9302 59.9417 39.0639 59.5992 39.1977C59.2567 39.3314 58.8513 39.4609 58.3834 39.5863C57.9158 39.7115 57.3894 39.8118 56.8044 39.887C56.2197 39.9624 55.593 39.9999 54.9246 39.9999L54.9246 40ZM74.5751 33.0552C74.5751 34.0915 74.4246 35.036 74.1239 35.8883C73.8231 36.7406 73.397 37.4677 72.8456 38.0695C72.2943 38.6712 71.6301 39.1392 70.8529 39.4734C70.076 39.8077 69.2197 39.9748 68.284 39.9748C67.3482 39.9748 66.4959 39.8077 65.7273 39.4734C64.9587 39.1392 64.2988 38.6712 63.7473 38.0695C63.196 37.4677 62.7657 36.7406 62.4564 35.8883C62.1473 35.036 61.9929 34.0915 61.9929 33.0552C61.9929 32.019 62.1473 31.0788 62.4564 30.2348C62.7657 29.3908 63.2002 28.6679 63.7598 28.0662C64.3196 27.4644 64.9838 27.0006 65.7524 26.6746C66.5211 26.3489 67.3649 26.1859 68.284 26.1859C69.2029 26.1859 70.0509 26.3489 70.828 26.6746C71.605 27.0006 72.2692 27.4644 72.8207 28.0662C73.3721 28.6679 73.8023 29.3908 74.1114 30.2348C74.4205 31.0788 74.5751 32.019 74.5751 33.0552H74.5751ZM71.4671 33.0552C71.4671 31.7516 71.1873 30.7194 70.6275 29.9591C70.0676 29.1986 69.2866 28.8182 68.284 28.8182C67.2814 28.8182 66.5001 29.1986 65.9405 29.9591C65.3806 30.7194 65.1006 31.7516 65.1006 33.0552C65.1006 34.3758 65.3806 35.4203 65.9405 36.1892C66.5001 36.958 67.2814 37.3423 68.284 37.3423C69.2866 37.3423 70.0676 36.958 70.6275 36.1892C71.1873 35.4203 71.4671 34.3757 71.4671 33.0552ZM82.2698 39.8746C81.3675 39.8579 80.6198 39.7577 80.0266 39.5737C79.4334 39.39 78.9613 39.1267 78.6105 38.7841C78.2595 38.4413 78.0131 38.0153 77.871 37.5055C77.729 36.9956 77.658 36.4148 77.658 35.7629V20.6702L80.6908 20.1688V35.1863C80.6908 35.554 80.7201 35.8632 80.7786 36.114C80.837 36.3646 80.9414 36.5778 81.0918 36.7533C81.2421 36.9287 81.4468 37.0624 81.7059 37.1544C81.9649 37.2462 82.2949 37.3174 82.696 37.3675L82.2698 39.8746ZM97.0077 33.0552C97.0077 34.0915 96.8572 35.036 96.5564 35.8883C96.2557 36.7406 95.8297 37.4677 95.2784 38.0695C94.7269 38.6712 94.0627 39.1392 93.2857 39.4734C92.5086 39.8077 91.6523 39.9748 90.7166 39.9748C89.7808 39.9748 88.9286 39.8077 88.1599 39.4734C87.3913 39.1392 86.7314 38.6712 86.1799 38.0695C85.6286 37.4677 85.1983 36.7406 84.889 35.8883C84.5799 35.036 84.4255 34.0915 84.4255 33.0552C84.4255 32.019 84.5799 31.0788 84.889 30.2348C85.1983 29.3908 85.6328 28.6679 86.1924 28.0662C86.7522 27.4644 87.4164 27.0006 88.1851 26.6746C88.9537 26.3489 89.7977 26.1859 90.7166 26.1859C91.6357 26.1859 92.4837 26.3489 93.2606 26.6746C94.0376 27.0006 94.7018 27.4644 95.2533 28.0662C95.8047 28.6679 96.2349 29.3908 96.544 30.2348C96.8531 31.0788 97.0077 32.019 97.0077 33.0552H97.0077ZM93.8997 33.0552C93.8997 31.7516 93.6199 30.7194 93.06 29.9591C92.5002 29.1986 91.7191 28.8182 90.7165 28.8182C89.714 28.8182 88.9327 29.1986 88.3731 29.9591C87.8132 30.7194 87.5332 31.7516 87.5332 33.0552C87.5332 34.3758 87.8132 35.4203 88.3731 36.1892C88.9327 36.958 89.714 37.3423 90.7165 37.3423C91.7191 37.3423 92.5002 36.958 93.06 36.1892C93.6199 35.4203 93.8997 34.3757 93.8997 33.0552ZM107.61 29.2444C107.359 29.161 107.012 29.0732 106.57 28.9814C106.127 28.8894 105.613 28.8433 105.028 28.8433C104.694 28.8433 104.339 28.8767 103.963 28.9436C103.587 29.0105 103.324 29.069 103.173 29.1191V39.624H100.141V27.1385C100.725 26.9213 101.457 26.7166 102.334 26.5243C103.211 26.3321 104.184 26.236 105.254 26.236C105.454 26.236 105.688 26.2486 105.956 26.2735C106.223 26.2987 106.49 26.3321 106.758 26.3738C107.025 26.4158 107.284 26.4658 107.535 26.5244C107.785 26.5827 107.986 26.6371 108.136 26.6873L107.61 29.2445V29.2444ZM114.854 37.4929C115.789 37.4929 116.5 37.4426 116.984 37.3424V33.9829C116.817 33.9329 116.575 33.8826 116.257 33.8326C115.94 33.7824 115.589 33.7572 115.204 33.7572C114.87 33.7572 114.532 33.7824 114.189 33.8326C113.847 33.8827 113.538 33.9746 113.262 34.1083C112.986 34.2421 112.765 34.43 112.598 34.6725C112.431 34.9148 112.347 35.2198 112.347 35.5875C112.347 36.3063 112.573 36.8035 113.024 37.0793C113.475 37.355 114.085 37.4929 114.853 37.4929H114.854ZM114.603 26.1859C115.606 26.1859 116.449 26.3112 117.134 26.5619C117.82 26.8127 118.367 27.1636 118.776 27.6148C119.186 28.0662 119.478 28.6135 119.653 29.2571C119.829 29.9006 119.917 30.6067 119.917 31.3756V39.3231C119.449 39.4234 118.743 39.5447 117.799 39.6865C116.855 39.8287 115.789 39.8997 114.603 39.8997C113.818 39.8997 113.099 39.8246 112.447 39.674C111.796 39.5237 111.24 39.2812 110.781 38.9471C110.321 38.6128 109.962 38.1783 109.703 37.6432C109.444 37.1086 109.314 36.4483 109.314 35.6627C109.314 34.9106 109.461 34.2755 109.753 33.7573C110.045 33.2392 110.442 32.8171 110.944 32.4912C111.445 32.1652 112.026 31.9314 112.685 31.7892C113.346 31.6471 114.035 31.5761 114.753 31.5761C115.087 31.5761 115.438 31.5971 115.806 31.6388C116.174 31.6805 116.566 31.7516 116.984 31.8518V31.3504C116.984 30.9995 116.942 30.6653 116.859 30.3476C116.775 30.0301 116.629 29.75 116.42 29.5077C116.211 29.2654 115.935 29.0773 115.593 28.9436C115.25 28.8099 114.82 28.743 114.302 28.743C113.6 28.743 112.957 28.7933 112.372 28.8935C111.787 28.9938 111.311 29.1107 110.944 29.2444L110.568 26.7876C110.952 26.6538 111.512 26.5202 112.247 26.3864C112.982 26.2527 113.767 26.1859 114.603 26.1859H114.603ZM126.007 33.0303C126.007 34.3674 126.325 35.4162 126.96 36.1767C127.595 36.937 128.472 37.3174 129.591 37.3174C130.076 37.3174 130.49 37.2964 130.832 37.2547C131.175 37.213 131.455 37.1669 131.672 37.1168V29.5955C131.404 29.4116 131.049 29.2403 130.606 29.0816C130.164 28.9226 129.692 28.8433 129.19 28.8433C128.087 28.8433 127.281 29.2193 126.772 29.9715C126.262 30.7237 126.007 31.7432 126.007 33.0303V33.0303ZM134.704 39.2228C134.103 39.4066 133.347 39.5737 132.436 39.7242C131.525 39.8746 130.569 39.9499 129.566 39.9499C128.53 39.9499 127.603 39.7911 126.784 39.4734C125.965 39.156 125.268 38.7004 124.691 38.1072C124.115 37.5138 123.672 36.795 123.363 35.951C123.054 35.1068 122.899 34.1584 122.899 33.1055C122.899 32.0692 123.029 31.129 123.288 30.2851C123.547 29.4409 123.927 28.7179 124.428 28.1162C124.929 27.5145 125.539 27.0508 126.258 26.7248C126.976 26.3989 127.804 26.2359 128.739 26.2359C129.374 26.2359 129.934 26.3112 130.419 26.4616C130.903 26.6121 131.321 26.779 131.672 26.963V20.6702L134.704 20.1688V39.2228V39.2228ZM150.42 33.0552C150.42 34.0915 150.27 35.036 149.969 35.8883C149.668 36.7406 149.242 37.4677 148.691 38.0695C148.139 38.6712 147.475 39.1392 146.698 39.4734C145.921 39.8077 145.064 39.9748 144.129 39.9748C143.193 39.9748 142.341 39.8077 141.572 39.4734C140.804 39.1392 140.144 38.6712 139.592 38.0695C139.041 37.4677 138.61 36.7406 138.301 35.8883C137.992 35.036 137.838 34.0915 137.838 33.0552C137.838 32.019 137.992 31.0788 138.301 30.2348C138.61 29.3908 139.045 28.6679 139.605 28.0662C140.164 27.4644 140.829 27.0006 141.597 26.6746C142.366 26.3489 143.21 26.1859 144.129 26.1859C145.048 26.1859 145.896 26.3489 146.673 26.6746C147.45 27.0006 148.114 27.4644 148.665 28.0662C149.217 28.6679 149.647 29.3908 149.956 30.2348C150.265 31.0788 150.42 32.019 150.42 33.0552H150.42ZM147.312 33.0552C147.312 31.7516 147.032 30.7194 146.472 29.9591C145.912 29.1986 145.131 28.8182 144.129 28.8182C143.126 28.8182 142.345 29.1986 141.785 29.9591C141.225 30.7194 140.946 31.7516 140.946 33.0552C140.946 34.3758 141.225 35.4203 141.785 36.1892C142.345 36.958 143.126 37.3423 144.129 37.3423C145.131 37.3423 145.912 36.958 146.472 36.1892C147.032 35.4203 147.312 34.3757 147.312 33.0552Z" fill="#475569"></path><path d="M51.8823 13.3765C51.3758 13.3765 50.9053 13.2859 50.4704 13.1044C50.0356 12.9227 49.6576 12.6581 49.3363 12.3102C49.0149 11.9621 48.7617 11.5331 48.5765 11.0226C48.3911 10.5121 48.2986 9.92776 48.2986 9.26976C48.2986 8.61195 48.3986 8.02763 48.5992 7.51715C48.7995 7.00646 49.0659 6.5774 49.3986 6.2295C49.7315 5.88163 50.117 5.61872 50.5554 5.441C50.994 5.26328 51.4515 5.17452 51.9277 5.17452C52.2226 5.17452 52.4911 5.19342 52.733 5.23119C52.975 5.26895 53.1867 5.31634 53.3683 5.37301C53.5497 5.42967 53.7046 5.48633 53.8331 5.54316C53.9617 5.59982 54.0601 5.65082 54.1281 5.69631L53.8785 6.36562C53.6895 6.25213 53.4495 6.14067 53.1584 6.03095C52.8672 5.92122 52.5062 5.86646 52.0753 5.86646C51.5837 5.86646 51.1547 5.94955 50.788 6.11594C50.4214 6.28252 50.1132 6.5169 49.8636 6.81944C49.6142 7.12182 49.4271 7.48122 49.3021 7.89708C49.1775 8.31314 49.115 8.77453 49.115 9.28122C49.115 9.80304 49.1775 10.2737 49.3021 10.6935C49.4271 11.1131 49.6104 11.4707 49.8523 11.7657C50.0943 12.0605 50.391 12.2875 50.7427 12.4461C51.0943 12.605 51.4968 12.6845 51.9503 12.6845C52.4496 12.6845 52.8672 12.6373 53.2037 12.5427C53.5401 12.4482 53.7954 12.3517 53.9693 12.2533L54.1847 12.9113C54.1318 12.9491 54.041 12.9927 53.9124 13.0418C53.7841 13.0909 53.6215 13.1421 53.4248 13.1949C53.2284 13.2478 53.0014 13.2914 52.7445 13.3254C52.4873 13.3594 52.1999 13.3764 51.8824 13.3764L51.8823 13.3765ZM62.9688 13.2064C62.8197 12.8207 62.6817 12.4483 62.5549 12.0927C62.4282 11.7353 62.3093 11.3894 62.1939 11.0509H58.3547C58.2225 11.3913 58.094 11.7391 57.9691 12.0946C57.8426 12.4521 57.7103 12.8226 57.5704 13.2064H56.7651C57.0638 12.3878 57.3453 11.6258 57.6119 10.9185C57.8766 10.2114 58.1373 9.54213 58.3926 8.91249C58.6479 8.28095 58.9011 7.67603 59.1526 7.09359C59.4039 6.5132 59.6684 5.92889 59.9463 5.34474H60.627C60.9028 5.92699 61.1655 6.50944 61.4151 7.09169C61.6647 7.67413 61.916 8.28095 62.1731 8.91059C62.4282 9.54213 62.6892 10.2114 62.952 10.9185C63.2146 11.6258 63.5039 12.3896 63.8196 13.2064H62.9688H62.9688ZM60.264 6.22953C59.9806 6.88184 59.7026 7.54551 59.4322 8.21672C59.1638 8.88982 58.8841 9.61389 58.5968 10.393H61.95C61.661 9.61393 61.3774 8.88792 61.1032 8.21485C60.8274 7.54175 60.5476 6.88 60.264 6.22956V6.22953ZM72.0821 7.70433C72.0821 8.29414 71.9271 8.7593 71.617 9.09964C71.307 9.44014 70.8988 9.68585 70.3922 9.83714C70.5131 9.98842 70.6702 10.1926 70.8627 10.4498C71.0557 10.7068 71.2541 10.9886 71.4582 11.2947C71.6623 11.6012 71.8629 11.9206 72.0594 12.2534C72.2559 12.5862 72.4223 12.9038 72.5584 13.2064H71.7305C71.5717 12.9038 71.3997 12.6013 71.2144 12.2989C71.0292 11.9963 70.84 11.7032 70.6473 11.4197C70.4545 11.1361 70.2674 10.8732 70.0859 10.6312C69.9045 10.3891 69.7457 10.1774 69.6096 9.99592C69.3675 10.0186 69.1256 10.0299 68.8836 10.0299H67.6135V13.2063H66.8422V5.4922C67.1144 5.41647 67.4339 5.36171 67.8006 5.32751C68.1672 5.29371 68.5056 5.27652 68.8156 5.27652C69.8969 5.27652 70.7116 5.48086 71.2597 5.88916C71.8078 6.29749 72.082 6.90257 72.082 7.7043L72.0821 7.70433ZM68.9065 5.94586C68.6191 5.94586 68.3678 5.95529 68.1522 5.97419C67.9368 5.99308 67.7572 6.01025 67.6135 6.02538V9.37198H68.6796C69.0351 9.37198 69.3715 9.35498 69.6889 9.32098C70.0065 9.28679 70.2825 9.21126 70.5169 9.09417C70.7514 8.97688 70.9366 8.80863 71.0727 8.58915C71.2087 8.36987 71.2768 8.0711 71.2768 7.693C71.2768 7.34513 71.2087 7.05769 71.0727 6.83084C70.9366 6.60383 70.7589 6.42421 70.5395 6.29182C70.3205 6.15964 70.069 6.06878 69.7854 6.01968C69.5018 5.97039 69.209 5.94582 68.9065 5.94582V5.94586ZM80.7414 5.34471V6.01402H78.2239V13.2063H77.4526V6.01402H74.9348V5.34471H80.7414ZM90.7392 9.26976C90.7392 9.94303 90.6411 10.5366 90.4443 11.0509C90.2477 11.5652 89.9812 11.9944 89.6447 12.3385C89.3084 12.6826 88.917 12.9418 88.4709 13.1157C88.0247 13.2897 87.5523 13.3765 87.0533 13.3765C86.5541 13.3765 86.0817 13.2897 85.6355 13.1157C85.1894 12.9418 84.7982 12.6826 84.4617 12.3385C84.1253 11.9944 83.8587 11.5652 83.6621 11.0509C83.4655 10.5366 83.3674 9.94306 83.3674 9.26976C83.3674 8.59665 83.4655 8.00497 83.6621 7.49448C83.8587 6.9838 84.1252 6.5566 84.4617 6.2125C84.7982 5.8684 85.1894 5.60929 85.6355 5.43533C86.0817 5.26138 86.5541 5.17452 87.0533 5.17452C87.5523 5.17452 88.0247 5.26138 88.4709 5.43533C88.917 5.60929 89.3084 5.8684 89.6447 6.2125C89.9811 6.5566 90.2477 6.9838 90.4443 7.49448C90.641 8.00497 90.7392 8.59665 90.7392 9.26976ZM89.9226 9.26976C89.9226 8.74037 89.8546 8.26598 89.7185 7.84615C89.5824 7.42632 89.3896 7.06899 89.14 6.77398C88.8906 6.47897 88.59 6.25406 88.2384 6.09917C87.8868 5.94392 87.4917 5.8665 87.0533 5.8665C86.6147 5.8665 86.2197 5.94392 85.8679 6.09917C85.5163 6.25403 85.2158 6.47897 84.9663 6.77398C84.7169 7.06899 84.524 7.42629 84.3878 7.84615C84.2519 8.26598 84.1837 8.7404 84.1837 9.26976C84.1837 9.79931 84.2519 10.2737 84.3878 10.6936C84.5239 11.1132 84.7169 11.4707 84.9663 11.7657C85.2158 12.0605 85.5163 12.2876 85.8679 12.4462C86.2197 12.605 86.6147 12.6845 87.0533 12.6845C87.4917 12.6845 87.8869 12.605 88.2384 12.4462C88.59 12.2876 88.8905 12.0605 89.14 11.7657C89.3896 11.4707 89.5824 11.1132 89.7185 10.6936C89.8546 10.2737 89.9226 9.79931 89.9226 9.26976ZM88.6183 3.2459L86.6791 4.82269L86.3047 4.39173L88.0967 2.66745L88.6183 3.24593L88.6183 3.2459ZM99.6028 7.7043C99.6028 8.29411 99.4478 8.75927 99.1378 9.09961C98.8278 9.44011 98.4194 9.68582 97.9128 9.83711C98.0338 9.98839 98.1907 10.1925 98.3835 10.4497C98.5763 10.7068 98.7749 10.9886 98.979 11.2947C99.1831 11.6012 99.3834 11.9206 99.5801 12.2534C99.7765 12.5861 99.943 12.9038 100.079 13.2063H99.251C99.0922 12.9038 98.9204 12.6012 98.735 12.2989C98.5498 11.9963 98.3608 11.7032 98.168 11.4197C97.9752 11.136 97.7881 10.8731 97.6067 10.6312C97.425 10.3891 97.2663 10.1774 97.1301 9.99589C96.8882 10.0186 96.6462 10.0299 96.4043 10.0299H95.1342V13.2063H94.3629V5.49216C94.6352 5.41644 94.9547 5.36167 95.3213 5.32748C95.688 5.29368 96.0263 5.27648 96.3364 5.27648C97.4177 5.27648 98.2322 5.48083 98.7805 5.88913C99.3286 6.29746 99.6028 6.90254 99.6028 7.70426L99.6028 7.7043ZM96.4273 5.94582C96.1397 5.94582 95.8884 5.95525 95.673 5.97415C95.4575 5.99305 95.278 6.01022 95.1343 6.02535V9.37195H96.2003C96.5556 9.37195 96.8921 9.35495 97.2097 9.32095C97.5273 9.28675 97.8033 9.21123 98.0376 9.09414C98.2721 8.97685 98.4573 8.8086 98.5935 8.58912C98.7294 8.36984 98.7976 8.07106 98.7976 7.69296C98.7976 7.3451 98.7294 7.05766 98.5935 6.83081C98.4574 6.6038 98.2795 6.42418 98.0603 6.29179C97.8411 6.1596 97.5896 6.06874 97.3062 6.01965C97.0226 5.97035 96.7296 5.94579 96.4273 5.94579V5.94582ZM103.272 5.34468H104.043V13.2063H103.272V5.34468ZM115.039 9.26972C115.039 9.943 114.941 10.5366 114.744 11.0509C114.547 11.5651 114.281 11.9944 113.945 12.3385C113.608 12.6826 113.217 12.9417 112.771 13.1157C112.325 13.2896 111.852 13.3765 111.353 13.3765C110.854 13.3765 110.381 13.2896 109.935 13.1157C109.489 12.9417 109.098 12.6826 108.761 12.3385C108.425 11.9944 108.159 11.5652 107.962 11.0509C107.765 10.5366 107.667 9.94303 107.667 9.26972C107.667 8.59662 107.765 8.00494 107.962 7.49445C108.159 6.98376 108.425 6.55657 108.761 6.21246C109.098 5.86836 109.489 5.60925 109.935 5.4353C110.381 5.26135 110.854 5.17449 111.353 5.17449C111.852 5.17449 112.325 5.26135 112.771 5.4353C113.217 5.60925 113.608 5.86836 113.945 6.21246C114.281 6.55657 114.547 6.98376 114.744 7.49445C114.941 8.00494 115.039 8.59662 115.039 9.26972ZM114.222 9.26972C114.222 8.74034 114.154 8.26595 114.018 7.84612C113.882 7.42629 113.689 7.06895 113.44 6.77395C113.19 6.47894 112.89 6.25403 112.538 6.09914C112.187 5.94389 111.792 5.86646 111.353 5.86646C110.914 5.86646 110.519 5.94389 110.168 6.09914C109.816 6.25399 109.516 6.47894 109.266 6.77395C109.017 7.06895 108.824 7.42626 108.688 7.84612C108.552 8.26595 108.484 8.74037 108.484 9.26972C108.484 9.79928 108.552 10.2737 108.688 10.6935C108.824 11.1132 109.017 11.4707 109.266 11.7657C109.516 12.0605 109.816 12.2875 110.168 12.4462C110.519 12.605 110.914 12.6845 111.353 12.6845C111.792 12.6845 112.187 12.605 112.538 12.4462C112.89 12.2875 113.19 12.0605 113.44 11.7657C113.689 11.4707 113.882 11.1132 114.018 10.6935C114.154 10.2737 114.222 9.79928 114.222 9.26972Z" fill="#475569"></path><defs><linearGradient id="paint0_linear" x1="0.00012207" y1="35.3077" x2="40.759" y2="35.3077" gradientUnits="userSpaceOnUse"><stop stop-color="#C4354E"></stop><stop offset="1" stop-color="#D86B39"></stop></linearGradient><linearGradient id="paint1_linear" x1="17.6714" y1="9.38472" x2="33.9218" y2="9.38472" gradientUnits="userSpaceOnUse"><stop stop-color="#53C1B7"></stop><stop offset="1" stop-color="#0097BC"></stop></linearGradient><linearGradient id="paint2_linear" x1="1.35431" y1="37.6538" x2="24.4514" y2="-2.3408" gradientUnits="userSpaceOnUse"><stop stop-color="#C4354E"></stop><stop offset="1" stop-color="#3C83A3"></stop></linearGradient></defs></svg>