<svg xmlns="http://www.w3.org/2000/svg" xmlns:xlink="http://www.w3.org/1999/xlink" viewBox="0 0 700 540" width="700" height="540"><path d="M 72.500,433.625 C 83.417,433.701 83.000,432.125 93.500,430.625" stroke-width="4.629" stroke="black" fill="none" stroke-linecap="round"></path><path d="M 93.500,430.625 C 112.992,424.202 112.917,424.701 131.500,415.625" stroke-width="2.048" stroke="black" fill="none" stroke-linecap="round"></path><path d="M 131.500,415.625 C 154.539,405.787 153.992,405.202 175.500,392.625" stroke-width="1.576" stroke="black" fill="none" stroke-linecap="round"></path><path d="M 175.500,392.625 C 199.197,379.928 197.539,378.787 217.500,361.625" stroke-width="1.387" stroke="black" fill="none" stroke-linecap="round"></path><path d="M 217.500,361.625 C 241.147,335.304 242.197,336.928 261.500,306.625" stroke-width="1.125" stroke="black" fill="none" stroke-linecap="round"></path><path d="M 261.500,306.625 C 285.842,273.392 285.147,273.304 305.500,237.625" stroke-width="1.125" stroke="black" fill="none" stroke-linecap="round"></path><path d="M 305.500,237.625 C 321.257,207.278 321.842,207.892 333.500,175.625" stroke-width="1.125" stroke="black" fill="none" stroke-linecap="round"></path><path d="M 333.500,175.625 C 340.793,153.818 341.757,154.278 346.500,131.625" stroke-width="1.287" stroke="black" fill="none" stroke-linecap="round"></path><path d="M 346.500,131.625 C 349.060,113.757 349.793,118.818 351.500,105.625" stroke-width="1.814" stroke="black" fill="none" stroke-linecap="round"></path><path d="M 351.500,105.625 C 353.279,108.718 352.060,103.757 352.500,111.625" stroke-width="3.377" stroke="black" fill="none" stroke-linecap="round"></path><path d="M 352.500,111.625 C 345.597,137.022 345.779,136.718 336.500,161.625" stroke-width="1.609" stroke="black" fill="none" stroke-linecap="round"></path><path d="M 336.500,161.625 C 321.740,195.837 323.597,196.522 308.500,230.625" stroke-width="1.125" stroke="black" fill="none" stroke-linecap="round"></path><path d="M 308.500,230.625 C 296.658,263.009 296.240,262.837 285.500,295.625" stroke-width="1.125" stroke="black" fill="none" stroke-linecap="round"></path><path d="M 285.500,295.625 C 276.817,319.929 277.158,320.009 269.500,344.625" stroke-width="1.259" stroke="black" fill="none" stroke-linecap="round"></path><path d="M 269.500,344.625 C 264.928,360.516 264.817,360.429 261.500,376.625" stroke-width="1.615" stroke="black" fill="none" stroke-linecap="round"></path><path d="M 261.500,376.625 C 260.216,384.106 259.928,384.016 259.500,391.625" stroke-width="2.337" stroke="black" fill="none" stroke-linecap="round"></path><path d="M 259.500,391.625 C 258.973,397.361 259.216,394.606 259.500,397.625" stroke-width="3.339" stroke="black" fill="none" stroke-linecap="round"></path><path d="M 259.500,397.625 C 260.440,395.099 259.973,397.861 261.500,392.625" stroke-width="4.446" stroke="black" fill="none" stroke-linecap="round"></path><path d="M 261.500,392.625 C 264.331,388.301 263.440,388.099 265.500,383.625" stroke-width="4.344" stroke="black" fill="none" stroke-linecap="round"></path><path d="M 265.500,383.625 C 265.959,380.068 266.331,380.301 265.500,376.625" stroke-width="4.033" stroke="black" fill="none" stroke-linecap="round"></path><path d="M 265.500,376.625 C 266.156,371.546 264.959,372.568 263.500,368.625" stroke-width="3.858" stroke="black" fill="none" stroke-linecap="round"></path><path d="M 263.500,368.625 C 255.817,359.090 256.156,360.546 245.500,354.625" stroke-width="2.635" stroke="black" fill="none" stroke-linecap="round"></path><path d="M 245.500,354.625 C 221.369,345.291 222.317,344.590 196.500,339.625" stroke-width="1.570" stroke="black" fill="none" stroke-linecap="round"></path><path d="M 196.500,339.625 C 181.528,337.171 181.869,336.291 166.500,336.625" stroke-width="1.865" stroke="black" fill="none" stroke-linecap="round"></path><path d="M 166.500,336.625 C 152.977,334.303 154.028,336.171 141.500,337.625" stroke-width="2.084" stroke="black" fill="none" stroke-linecap="round"></path><path d="M 141.500,337.625 C 134.613,342.231 133.977,339.803 128.500,347.625" stroke-width="2.525" stroke="black" fill="none" stroke-linecap="round"></path><path d="M 128.500,347.625 C 121.947,352.376 126.113,349.731 124.500,352.625" stroke-width="3.412" stroke="black" fill="none" stroke-linecap="round"></path><path d="M 124.500,352.625 C 147.220,354.428 142.447,354.376 169.500,351.625" stroke-width="3.061" stroke="black" fill="none" stroke-linecap="round"></path><path d="M 169.500,351.625 C 222.626,343.319 222.720,344.928 275.500,333.625" stroke-width="1.125" stroke="black" fill="none" stroke-linecap="round"></path><path d="M 275.500,333.625 C 342.901,322.425 342.626,321.319 409.500,307.625" stroke-width="1.125" stroke="black" fill="none" stroke-linecap="round"></path><path d="M 409.500,307.625 C 473.139,292.154 473.401,293.425 536.500,275.625" stroke-width="1.125" stroke="black" fill="none" stroke-linecap="round"></path><path d="M 536.500,275.625 C 588.389,262.937 588.139,262.154 639.500,247.625" stroke-width="1.125" stroke="black" fill="none" stroke-linecap="round"></path><path d="M 280.500,327.625 C 282.913,325.506 283.000,325.625 285.500,323.625" stroke-width="5.503" stroke="black" fill="none" stroke-linecap="round"></path><path d="M 285.500,323.625 C 288.966,322.159 288.413,321.506 291.500,319.625" stroke-width="4.315" stroke="black" fill="none" stroke-linecap="round"></path><path d="M 291.500,319.625 C 300.710,312.201 299.466,311.659 306.500,302.625" stroke-width="3.509" stroke="black" fill="none" stroke-linecap="round"></path><path d="M 306.500,302.625 C 312.041,289.642 313.710,290.701 317.500,276.625" stroke-width="2.400" stroke="black" fill="none" stroke-linecap="round"></path><path d="M 317.500,276.625 C 319.150,270.750 318.541,274.142 319.500,271.625" stroke-width="3.400" stroke="black" fill="none" stroke-linecap="round"></path><path d="M 319.500,271.625 C 319.500,276.625 320.150,273.250 319.500,281.625" stroke-width="4.374" stroke="black" fill="none" stroke-linecap="round"></path><path d="M 319.500,281.625 C 319.500,285.125 319.500,285.125 319.500,288.625" stroke-width="4.041" stroke="black" fill="none" stroke-linecap="round"></path><path d="M 319.500,288.625 C 319.500,292.125 319.500,292.125 319.500,295.625" stroke-width="4.001" stroke="black" fill="none" stroke-linecap="round"></path><path d="M 319.500,295.625 C 319.500,299.125 319.500,299.125 319.500,302.625" stroke-width="4.035" stroke="black" fill="none" stroke-linecap="round"></path><path d="M 319.500,302.625 C 319.500,306.125 319.500,306.125 319.500,309.625" stroke-width="3.949" stroke="black" fill="none" stroke-linecap="round"></path><path d="M 319.500,309.625 C 318.902,313.740 319.500,313.625 319.500,317.625" stroke-width="4.337" stroke="black" fill="none" stroke-linecap="round"></path><path d="M 319.500,317.625 C 319.567,322.238 319.902,320.240 321.500,322.625" stroke-width="4.674" stroke="black" fill="none" stroke-linecap="round"></path><path d="M 321.500,322.625 C 326.494,322.519 324.567,323.238 329.500,319.625" stroke-width="3.920" stroke="black" fill="none" stroke-linecap="round"></path><path d="M 329.500,319.625 C 342.293,310.036 339.994,309.519 348.500,296.625" stroke-width="2.385" stroke="black" fill="none" stroke-linecap="round"></path><path d="M 348.500,296.625 C 369.788,248.504 370.293,249.536 385.500,198.625" stroke-width="1.125" stroke="black" fill="none" stroke-linecap="round"></path><path d="M 385.500,198.625 C 397.304,147.286 401.288,148.504 411.500,96.625" stroke-width="1.125" stroke="black" fill="none" stroke-linecap="round"></path><path d="M 411.500,96.625 C 423.525,56.446 422.804,56.286 436.500,16.625" stroke-width="1.125" stroke="black" fill="none" stroke-linecap="round"></path><path d="M 436.500,16.625 C 438.955,12.261 438.025,11.946 440.500,7.625" stroke-width="1.845" stroke="black" fill="none" stroke-linecap="round"></path><path d="M 440.500,7.625 C 439.868,3.529 441.455,4.761 441.500,1.625" stroke-width="3.233" stroke="black" fill="none" stroke-linecap="round"></path><path d="M 334.500,83.625 C 331.054,83.413 331.500,82.625 328.500,81.625" stroke-width="5.491" stroke="black" fill="none" stroke-linecap="round"></path><path d="M 328.500,81.625 C 320.431,76.545 321.054,76.413 314.500,69.625" stroke-width="4.022" stroke="black" fill="none" stroke-linecap="round"></path><path d="M 314.500,69.625 C 308.685,61.994 308.431,62.545 304.500,53.625" stroke-width="2.892" stroke="black" fill="none" stroke-linecap="round"></path><path d="M 304.500,53.625 C 303.057,48.607 302.185,48.994 301.500,43.625" stroke-width="3.232" stroke="black" fill="none" stroke-linecap="round"></path><path d="M 301.500,43.625 C 298.898,40.434 300.557,40.607 299.500,37.625" stroke-width="3.794" stroke="black" fill="none" stroke-linecap="round"></path><path d="M 299.500,37.625 C 300.991,32.549 300.398,33.434 304.500,29.625" stroke-width="4.143" stroke="black" fill="none" stroke-linecap="round"></path><path d="M 304.500,29.625 C 310.585,24.930 309.991,25.049 317.500,22.625" stroke-width="3.208" stroke="black" fill="none" stroke-linecap="round"></path><path d="M 317.500,22.625 C 325.973,20.937 325.585,19.930 334.500,19.625" stroke-width="2.904" stroke="black" fill="none" stroke-linecap="round"></path><path d="M 334.500,19.625 C 338.985,18.863 338.973,18.937 343.500,18.625" stroke-width="3.354" stroke="black" fill="none" stroke-linecap="round"></path><path d="M 343.500,18.625 C 348.608,17.891 348.485,18.363 353.500,18.625" stroke-width="3.483" stroke="black" fill="none" stroke-linecap="round"></path><path d="M 353.500,18.625 C 358.653,19.740 358.608,19.391 363.500,21.625" stroke-width="3.484" stroke="black" fill="none" stroke-linecap="round"></path><path d="M 363.500,21.625 C 367.992,22.942 367.653,23.240 371.500,25.625" stroke-width="3.570" stroke="black" fill="none" stroke-linecap="round"></path><path d="M 371.500,25.625 C 376.315,29.843 376.492,29.442 380.500,34.625" stroke-width="3.315" stroke="black" fill="none" stroke-linecap="round"></path><path d="M 380.500,34.625 C 386.800,41.913 386.815,41.843 392.500,49.625" stroke-width="2.745" stroke="black" fill="none" stroke-linecap="round"></path><path d="M 392.500,49.625 C 394.718,53.832 395.300,53.413 397.500,57.625" stroke-width="3.256" stroke="black" fill="none" stroke-linecap="round"></path><path d="M 397.500,57.625 C 400.570,61.067 400.218,61.332 403.500,64.625" stroke-width="3.469" stroke="black" fill="none" stroke-linecap="round"></path><path d="M 403.500,64.625 C 406.806,70.358 407.570,69.567 411.500,74.625" stroke-width="3.282" stroke="black" fill="none" stroke-linecap="round"></path><path d="M 411.500,74.625 C 418.108,80.277 417.806,80.358 425.500,84.625" stroke-width="2.860" stroke="black" fill="none" stroke-linecap="round"></path><path d="M 425.500,84.625 C 434.837,92.667 435.108,90.277 445.500,94.625" stroke-width="2.544" stroke="black" fill="none" stroke-linecap="round"></path><path d="M 445.500,94.625 C 460.601,96.868 459.337,97.167 474.500,93.625" stroke-width="2.137" stroke="black" fill="none" stroke-linecap="round"></path><path d="M 474.500,93.625 C 490.444,88.021 490.601,89.868 505.500,80.625" stroke-width="1.957" stroke="black" fill="none" stroke-linecap="round"></path><path d="M 505.500,80.625 C 519.500,74.522 518.944,74.021 531.500,65.625" stroke-width="2.010" stroke="black" fill="none" stroke-linecap="round"></path><path d="M 531.500,65.625 C 547.050,51.053 548.500,53.022 563.500,37.625" stroke-width="1.655" stroke="black" fill="none" stroke-linecap="round"></path><path d="M 563.500,37.625 C 571.849,31.393 571.550,31.053 580.500,25.625" stroke-width="2.183" stroke="black" fill="none" stroke-linecap="round"></path><path d="M 366.500,251.625 C 366.073,254.141 366.000,254.125 365.500,256.625" stroke-width="5.524" stroke="black" fill="none" stroke-linecap="round"></path><path d="M 365.500,256.625 C 364.500,260.625 364.573,260.641 363.500,264.625" stroke-width="4.117" stroke="black" fill="none" stroke-linecap="round"></path><path d="M 363.500,264.625 C 362.562,268.642 362.500,268.625 361.500,272.625" stroke-width="3.825" stroke="black" fill="none" stroke-linecap="round"></path><path d="M 361.500,272.625 C 360.438,276.108 360.562,276.142 359.500,279.625" stroke-width="3.904" stroke="black" fill="none" stroke-linecap="round"></path><path d="M 359.500,279.625 C 357.803,283.539 358.438,283.608 357.500,287.625" stroke-width="3.822" stroke="black" fill="none" stroke-linecap="round"></path><path d="M 357.500,287.625 C 357.136,297.151 356.803,297.039 357.500,306.625" stroke-width="3.670" stroke="black" fill="none" stroke-linecap="round"></path><path d="M 357.500,306.625 C 357.708,310.194 357.636,310.151 358.500,313.625" stroke-width="3.829" stroke="black" fill="none" stroke-linecap="round"></path><path d="M 358.500,313.625 C 359.670,316.580 359.208,316.694 360.500,319.625" stroke-width="3.968" stroke="black" fill="none" stroke-linecap="round"></path><path d="M 360.500,319.625 C 360.118,322.650 361.170,322.080 361.500,324.625" stroke-width="4.172" stroke="black" fill="none" stroke-linecap="round"></path><path d="M 361.500,324.625 C 364.122,327.748 363.618,327.650 367.500,329.625" stroke-width="3.890" stroke="black" fill="none" stroke-linecap="round"></path><path d="M 367.500,329.625 C 373.260,333.325 373.122,332.748 379.500,334.625" stroke-width="3.370" stroke="black" fill="none" stroke-linecap="round"></path><path d="M 379.500,334.625 C 386.556,337.450 385.260,335.825 391.500,334.625" stroke-width="3.514" stroke="black" fill="none" stroke-linecap="round"></path><path d="M 391.500,334.625 C 405.287,326.397 404.056,327.450 414.500,314.625" stroke-width="2.310" stroke="black" fill="none" stroke-linecap="round"></path><path d="M 414.500,314.625 C 422.318,302.144 423.287,303.397 427.500,288.625" stroke-width="2.082" stroke="black" fill="none" stroke-linecap="round"></path><path d="M 427.500,288.625 C 432.778,271.698 433.818,272.144 437.500,254.625" stroke-width="1.838" stroke="black" fill="none" stroke-linecap="round"></path><path d="M 437.500,254.625 C 439.193,248.161 439.278,248.198 440.500,241.625" stroke-width="2.595" stroke="black" fill="none" stroke-linecap="round"></path><path d="M 440.500,241.625 C 442.398,233.428 441.193,238.161 441.500,234.625" stroke-width="3.427" stroke="black" fill="none" stroke-linecap="round"></path><path d="M 441.500,234.625 C 437.021,241.810 439.398,237.428 434.500,249.625" stroke-width="4.253" stroke="black" fill="none" stroke-linecap="round"></path><path d="M 434.500,249.625 C 432.429,257.572 432.021,257.310 431.500,265.625" stroke-width="3.183" stroke="black" fill="none" stroke-linecap="round"></path><path d="M 431.500,265.625 C 430.653,270.752 430.929,270.572 431.500,275.625" stroke-width="3.373" stroke="black" fill="none" stroke-linecap="round"></path><path d="M 431.500,275.625 C 433.427,282.148 432.653,282.252 435.500,288.625" stroke-width="3.253" stroke="black" fill="none" stroke-linecap="round"></path><path d="M 435.500,288.625 C 437.500,294.625 437.427,294.648 439.500,300.625" stroke-width="3.233" stroke="black" fill="none" stroke-linecap="round"></path><path d="M 439.500,300.625 C 439.558,307.753 441.000,305.125 442.500,309.625" stroke-width="3.953" stroke="black" fill="none" stroke-linecap="round"></path><path d="M 442.500,309.625 C 447.401,310.072 445.058,311.253 450.500,307.625" stroke-width="3.886" stroke="black" fill="none" stroke-linecap="round"></path><path d="M 450.500,307.625 C 457.345,301.976 456.901,302.572 461.500,294.625" stroke-width="3.065" stroke="black" fill="none" stroke-linecap="round"></path><path d="M 461.500,294.625 C 470.336,278.575 470.345,278.976 476.500,261.625" stroke-width="2.050" stroke="black" fill="none" stroke-linecap="round"></path><path d="M 476.500,261.625 C 478.843,250.586 480.336,251.075 481.500,239.625" stroke-width="2.294" stroke="black" fill="none" stroke-linecap="round"></path><path d="M 481.500,239.625 C 483.883,229.859 482.843,234.086 484.500,228.625" stroke-width="2.908" stroke="black" fill="none" stroke-linecap="round"></path><path d="M 484.500,228.625 C 483.870,232.110 484.883,227.859 483.500,235.625" stroke-width="4.191" stroke="black" fill="none" stroke-linecap="round"></path><path d="M 483.500,235.625 C 482.914,241.619 482.870,241.610 482.500,247.625" stroke-width="3.452" stroke="black" fill="none" stroke-linecap="round"></path><path d="M 482.500,247.625 C 481.827,256.120 481.914,256.119 481.500,264.625" stroke-width="2.909" stroke="black" fill="none" stroke-linecap="round"></path><path d="M 481.500,264.625 C 481.236,269.141 481.327,269.120 481.500,273.625" stroke-width="3.408" stroke="black" fill="none" stroke-linecap="round"></path><path d="M 481.500,273.625 C 480.145,279.506 481.736,277.641 482.500,281.625" stroke-width="4.084" stroke="black" fill="none" stroke-linecap="round"></path><path d="M 482.500,281.625 C 487.790,284.623 485.145,284.006 491.500,282.625" stroke-width="3.727" stroke="black" fill="none" stroke-linecap="round"></path><path d="M 491.500,282.625 C 501.384,276.298 500.790,277.623 508.500,267.625" stroke-width="2.623" stroke="black" fill="none" stroke-linecap="round"></path><path d="M 508.500,267.625 C 516.084,255.676 517.384,256.798 523.500,243.625" stroke-width="2.179" stroke="black" fill="none" stroke-linecap="round"></path><path d="M 523.500,243.625 C 528.698,236.467 528.084,236.176 532.500,228.625" stroke-width="2.511" stroke="black" fill="none" stroke-linecap="round"></path><path d="M 532.500,228.625 C 535.664,219.476 536.698,219.967 539.500,210.625" stroke-width="2.537" stroke="black" fill="none" stroke-linecap="round"></path><path d="M 539.500,210.625 C 541.575,203.620 542.164,204.476 545.500,198.625" stroke-width="2.882" stroke="black" fill="none" stroke-linecap="round"></path><path d="M 545.500,198.625 C 549.402,194.703 547.075,196.620 550.500,196.625" stroke-width="4.008" stroke="black" fill="none" stroke-linecap="round"></path><path d="M 550.500,196.625 C 555.643,207.809 555.402,205.203 557.500,219.625" stroke-width="2.589" stroke="black" fill="none" stroke-linecap="round"></path><path d="M 557.500,219.625 C 559.541,243.122 561.143,242.809 561.500,266.625" stroke-width="1.647" stroke="black" fill="none" stroke-linecap="round"></path><path d="M 561.500,266.625 C 559.970,274.059 562.041,273.122 562.500,279.625" stroke-width="2.451" stroke="black" fill="none" stroke-linecap="round"></path><path d="M 562.500,279.625 C 565.777,287.447 564.970,285.059 571.500,288.625" stroke-width="2.941" stroke="black" fill="none" stroke-linecap="round"></path><path d="M 571.500,288.625 C 585.218,291.281 582.777,290.947 596.500,286.625" stroke-width="2.372" stroke="black" fill="none" stroke-linecap="round"></path><path d="M 596.500,286.625 C 615.089,273.896 616.718,278.281 634.500,262.625" stroke-width="1.603" stroke="black" fill="none" stroke-linecap="round"></path><circle r="1.5" cx="362.5" cy="200.625" fill="black"></circle><circle r="1.5" cx="362.5" cy="200.625" fill="black"></circle><circle r="1.5" cx="468.5" cy="156.625" fill="black"></circle><circle r="1.5" cx="468.5" cy="156.625" fill="black"></circle></svg>